# Blender v2.92.0 OBJ File: ''
# www.blender.org
mtllib carrier.mtl
o Cube_Cube.006
v -3.182356 -0.019028 5.787363
v -3.182356 1.980972 7.463294
v -3.182356 -0.019028 -7.463294
v -3.182356 1.980972 -7.463294
v 3.182356 -0.019028 5.787363
v 3.182356 1.980972 7.463294
v 3.182356 -0.019028 -7.463294
v 3.182356 1.980972 -7.463294
v 0.000000 -0.019028 -7.463294
v 0.000000 1.980972 -7.463294
v 0.000000 -0.019028 5.787363
v 0.000000 1.980972 7.463294
v 1.591178 1.980972 -7.463294
v 1.591178 -0.019028 5.787363
v 1.591178 -0.019028 -7.463294
v 1.591178 1.980972 7.463294
v -1.591178 -0.019028 -7.463294
v -1.591178 1.980972 7.463294
v -1.591178 1.980972 -7.463294
v -1.591178 -0.019028 5.787363
v -3.182356 -0.019028 -0.837965
v -3.182356 1.980972 0.000000
v 3.182356 -0.019028 -0.837965
v 3.182356 1.980972 0.000000
v 0.000000 1.980972 0.000000
v 0.000000 -0.019028 -0.837965
v 1.591178 1.980972 0.000000
v 1.591178 -0.019028 -0.837965
v -1.591178 -0.019028 -0.837965
v -1.591178 1.980972 0.000000
v -3.182356 1.980972 -3.731647
v 3.182356 -0.019028 -4.150630
v -3.182356 -0.019028 -4.150630
v 3.182356 1.980972 -3.731647
v 0.000000 1.980972 -3.731647
v 0.000000 -0.019028 -4.150630
v 1.591178 1.980972 -3.731647
v 1.591178 -0.019028 -4.150630
v -1.591178 -0.019028 -4.150630
v -1.591178 1.980972 -3.731647
v -3.182356 1.980972 -5.597470
v 3.182356 -0.019028 -5.806962
v -3.182356 -0.019028 -5.806962
v 3.182356 1.980972 -5.597470
v 0.000000 -0.019028 -5.806962
v 1.591178 1.980972 -5.597470
v 1.591178 -0.019028 -5.806962
v -1.591178 -0.019028 -5.806962
v -1.591178 1.980972 -5.597470
v -2.783001 1.978395 -5.663211
v -2.783001 1.978395 -7.101721
v 1.391500 1.978395 -7.101721
v 2.783001 1.978395 -7.101721
v -1.391500 1.978395 -7.101721
v -0.000000 1.978395 -7.101721
v -2.783001 3.518265 -5.663211
v -0.000000 1.978395 -4.224701
v 1.391500 1.978395 -5.663211
v 1.391500 1.978395 -4.224701
v -1.391500 1.978395 -5.663211
v -1.391500 1.978395 -4.224701
v 2.783001 1.978395 -5.663211
v -2.783001 2.388227 -5.663211
v -2.783001 2.388227 -7.101721
v 1.391500 2.388227 -7.101721
v 2.783001 2.388227 -7.101721
v -1.391500 2.388227 -7.101721
v -0.000000 2.388227 -7.101721
v -0.000000 2.388227 -4.224701
v 1.391500 2.388227 -5.663211
v 1.391500 2.388227 -4.224701
v -1.391500 2.388227 -5.663211
v -1.391500 2.388227 -4.224701
v 2.783001 2.388227 -5.663211
v -2.783001 3.518265 -7.101721
v 1.391500 4.223911 -7.101721
v 2.783001 3.518265 -7.101721
v -1.391500 4.223911 -7.101721
v -0.000000 4.223911 -7.101721
v -0.000000 4.223911 -5.663211
v -0.000000 4.223911 -3.836555
v 1.391500 4.223911 -5.663211
v 1.391500 4.223911 -3.836555
v -1.391500 4.223911 -5.663211
v -1.391500 4.223911 -3.836555
v 2.783001 3.518265 -5.663211
vt 0.875000 0.531250
vt 0.812500 0.531250
vt 0.812500 0.531250
vt 0.875000 0.531250
vt 0.625000 0.531250
vt 0.625000 0.500000
vt 0.625000 0.500000
vt 0.625000 0.531250
vt 0.625000 0.437500
vt 0.625000 0.375000
vt 0.625000 0.375000
vt 0.625000 0.437500
vt 0.687500 0.562500
vt 0.687500 0.531250
vt 0.687500 0.531250
vt 0.687500 0.562500
vt 0.812500 0.562500
vt 0.750000 0.562500
vt 0.750000 0.562500
vt 0.812500 0.562500
vt 0.625000 0.312500
vt 0.625000 0.312500
vt 0.625000 0.500000
vt 0.625000 0.531250
vt 0.625000 0.375000
vt 0.625000 0.437500
vt 0.687500 0.531250
vt 0.687500 0.562500
vt 0.625000 0.312500
vt 0.625000 0.250000
vt 0.625000 0.218750
vt 0.625000 0.218750
vt 0.625000 0.250000
vt 0.750000 0.531250
vt 0.750000 0.562500
vt 0.812500 0.531250
vt 0.812500 0.562500
vt 0.750000 0.500000
vt 0.812500 0.500000
vt 0.687500 0.500000
vt 0.875000 0.500000
vt 0.875000 0.531250
vt 0.625000 0.218750
vt 0.625000 0.250000
vt 0.375000 0.218750
vt 0.625000 0.218750
vt 0.625000 0.250000
vt 0.375000 0.250000
vt 0.375000 0.437500
vt 0.625000 0.437500
vt 0.625000 0.500000
vt 0.375000 0.500000
vt 0.375000 0.625000
vt 0.625000 0.625000
vt 0.625000 0.750000
vt 0.375000 0.750000
vt 0.375000 0.937500
vt 0.625000 0.937500
vt 0.625000 1.000000
vt 0.375000 1.000000
vt 0.312500 0.625000
vt 0.312500 0.750000
vt 0.812500 0.625000
vt 0.875000 0.625000
vt 0.875000 0.750000
vt 0.812500 0.750000
vt 0.687500 0.625000
vt 0.750000 0.625000
vt 0.750000 0.750000
vt 0.687500 0.750000
vt 0.187500 0.625000
vt 0.250000 0.625000
vt 0.250000 0.750000
vt 0.187500 0.750000
vt 0.375000 0.812500
vt 0.625000 0.812500
vt 0.625000 0.875000
vt 0.375000 0.875000
vt 0.375000 0.312500
vt 0.625000 0.312500
vt 0.625000 0.375000
vt 0.375000 0.375000
vt 0.125000 0.625000
vt 0.125000 0.750000
vt 0.750000 0.562500
vt 0.812500 0.562500
vt 0.125000 0.562500
vt 0.187500 0.562500
vt 0.250000 0.562500
vt 0.312500 0.562500
vt 0.625000 0.562500
vt 0.687500 0.562500
vt 0.875000 0.562500
vt 0.375000 0.562500
vt 0.375000 0.000000
vt 0.625000 0.000000
vt 0.625000 0.125000
vt 0.375000 0.125000
vt 0.375000 0.531250
vt 0.625000 0.531250
vt 0.312500 0.531250
vt 0.812500 0.531250
vt 0.875000 0.531250
vt 0.187500 0.531250
vt 0.250000 0.531250
vt 0.687500 0.531250
vt 0.125000 0.531250
vt 0.625000 0.187500
vt 0.375000 0.187500
vt 0.125000 0.500000
vt 0.187500 0.500000
vt 0.250000 0.500000
vt 0.312500 0.500000
vn 0.0000 0.0000 1.0000
vn 1.0000 0.0000 0.0000
vn 0.0000 0.0000 -1.0000
vn -1.0000 0.0000 0.0000
vn 0.0000 1.0000 0.0000
vn 0.4523 0.8919 0.0000
vn -0.4523 0.8919 0.0000
vn 0.0000 -0.6423 0.7665
vn 0.0000 -1.0000 0.0000
vn 0.0000 0.9992 -0.0392
vn 0.0000 1.0000 0.0071
vn 0.0000 1.0000 -0.0052
vn 0.0065 1.0000 0.0000
vn 0.0129 0.9999 0.0000
vn -0.0065 1.0000 0.0000
vn -0.0129 0.9999 0.0000
vn 0.0000 -0.2069 0.9784
usemtl Material.017
s off
f 50/1/1 60/2/1 72/3/1 63/4/1
f 62/5/2 53/6/2 66/7/2 74/8/2
f 52/9/3 55/10/3 68/11/3 65/12/3
f 59/13/2 58/14/2 70/15/2 71/16/2
f 61/17/1 57/18/1 69/19/1 73/20/1
f 55/10/3 54/21/3 67/22/3 68/11/3
f 74/8/2 66/7/2 77/23/2 86/24/2
f 65/12/3 68/11/3 79/25/3 76/26/3
f 71/16/2 70/15/2 82/27/2 83/28/2
f 68/11/3 67/22/3 78/29/3 79/25/3
f 70/15/1 74/8/1 86/24/1 82/27/1
f 51/30/4 50/31/4 63/32/4 64/33/4
f 60/2/4 61/17/4 73/20/4 72/3/4
f 54/21/3 51/30/3 64/33/3 67/22/3
f 53/6/3 52/9/3 65/12/3 66/7/3
f 57/18/1 59/13/1 71/16/1 69/19/1
f 58/14/1 62/5/1 74/8/1 70/15/1
f 82/27/5 80/34/5 81/35/5 83/28/5
f 80/34/5 84/36/5 85/37/5 81/35/5
f 79/38/5 78/39/5 84/36/5 80/34/5
f 77/23/6 76/40/6 82/27/6 86/24/6
f 76/40/5 79/38/5 80/34/5 82/27/5
f 78/39/7 75/41/7 56/42/7 84/36/7
f 63/4/1 72/3/1 84/36/1 56/42/1
f 64/33/4 63/32/4 56/43/4 75/44/4
f 72/3/4 73/20/4 85/37/4 84/36/4
f 67/22/3 64/33/3 75/44/3 78/29/3
f 66/7/3 65/12/3 76/26/3 77/23/3
usemtl Material.018
f 43/45/4 41/46/4 4/47/4 3/48/4
f 15/49/3 13/50/3 8/51/3 7/52/3
f 23/53/2 24/54/2 6/55/2 5/56/2
f 20/57/8 18/58/8 2/59/8 1/60/8
f 28/61/9 23/53/9 5/56/9 14/62/9
f 30/63/5 22/64/5 2/65/5 18/66/5
f 27/67/5 25/68/5 12/69/5 16/70/5
f 29/71/9 26/72/9 11/73/9 20/74/9
f 14/75/8 16/76/8 12/77/8 11/78/8
f 17/79/3 19/80/3 10/81/3 9/82/3
f 5/56/8 6/55/8 16/76/8 14/75/8
f 24/54/5 27/67/5 16/70/5 6/55/5
f 26/72/9 28/61/9 14/62/9 11/73/9
f 9/82/3 10/81/3 13/50/3 15/49/3
f 3/48/3 4/47/3 19/80/3 17/79/3
f 21/83/9 29/71/9 20/74/9 1/84/9
f 25/68/5 30/63/5 18/66/5 12/69/5
f 11/78/8 12/77/8 18/58/8 20/57/8
f 35/85/5 40/86/5 30/63/5 25/68/5
f 33/87/9 39/88/9 29/71/9 21/83/9
f 36/89/9 38/90/9 28/61/9 26/72/9
f 34/91/5 37/92/5 27/67/5 24/54/5
f 39/88/9 36/89/9 26/72/9 29/71/9
f 37/92/5 35/85/5 25/68/5 27/67/5
f 40/86/5 31/93/5 22/64/5 30/63/5
f 38/90/9 32/94/9 23/53/9 28/61/9
f 32/94/2 34/91/2 24/54/2 23/53/2
f 1/95/4 2/96/4 22/97/4 21/98/4
f 42/99/2 44/100/2 34/91/2 32/94/2
f 47/101/9 42/99/9 32/94/9 38/90/9
f 49/102/5 41/103/5 31/93/5 40/86/5
f 41/103/10 49/102/10 60/2/10 50/1/10
f 48/104/9 45/105/9 36/89/9 39/88/9
f 44/100/5 46/106/5 37/92/5 34/91/5
f 45/105/9 47/101/9 38/90/9 36/89/9
f 43/107/9 48/104/9 39/88/9 33/87/9
f 13/50/11 10/81/11 55/10/11 52/9/11
f 21/98/4 22/97/4 31/108/4 33/109/4
f 19/80/11 4/47/11 51/30/11 54/21/11
f 3/110/9 17/111/9 48/104/9 43/107/9
f 9/112/9 15/113/9 47/101/9 45/105/9
f 10/81/11 19/80/11 54/21/11 55/10/11
f 17/111/9 9/112/9 45/105/9 48/104/9
f 40/86/12 35/85/12 57/18/12 61/17/12
f 4/47/13 41/46/13 50/31/13 51/30/13
f 15/113/9 7/52/9 42/99/9 47/101/9
f 7/52/2 8/51/2 44/100/2 42/99/2
f 33/109/4 31/108/4 41/46/4 43/45/4
f 49/102/14 40/86/14 61/17/14 60/2/14
f 46/106/10 44/100/10 62/5/10 58/14/10
f 44/100/15 8/51/15 53/6/15 62/5/15
f 37/92/16 46/106/16 58/14/16 59/13/16
f 35/85/12 37/92/12 59/13/12 57/18/12
f 8/51/11 13/50/11 52/9/11 53/6/11
usemtl Material.019
f 73/20/17 69/19/17 81/35/17 85/37/17
f 69/19/17 71/16/17 83/28/17 81/35/17
