# Blender v2.92.0 OBJ File: ''
# www.blender.org
mtllib lighthouse.mtl
o Cube_Cube.001
v -1.393129 0.823758 0.012981
v -1.393129 2.823759 0.012981
v -1.000000 2.823759 -1.000000
v -1.000000 0.823758 -1.000000
v 0.000000 0.823758 -1.395261
v 0.000000 2.823759 -1.395261
v 1.000000 2.823759 -1.000000
v 1.000000 0.823758 -1.000000
v 1.393129 0.823758 0.012981
v 1.393129 2.823759 0.012981
v 1.000000 2.823759 1.000000
v 1.000000 0.823758 1.000000
v 0.000000 0.823758 1.390996
v 0.000000 2.823759 1.390996
v -1.000000 2.823759 1.000000
v -1.000000 0.823758 1.000000
v 0.000000 0.823758 0.010849
v 1.000000 4.562532 -1.000000
v 0.000000 4.562532 -1.395261
v 0.000000 6.533381 -1.395261
v 1.000000 6.533381 -1.000000
v -1.000000 4.562532 1.000000
v 0.000000 4.562532 1.390996
v 0.000000 6.533381 1.390996
v -1.000000 6.533381 1.000000
v 1.393129 4.562532 0.012981
v 1.393129 6.533381 0.012981
v -1.000000 4.562532 -1.000000
v -1.000000 6.533381 -1.000000
v 1.000000 4.562532 1.000000
v 1.000000 6.533381 1.000000
v -1.393129 4.562532 0.012981
v -1.393129 6.533381 0.012981
v -1.000000 8.700279 -1.000000
v -1.393129 8.700279 0.012981
v -1.393129 10.260927 0.012981
v -1.000000 10.260927 -1.000000
v 1.000000 8.700279 1.000000
v 1.393129 8.700279 0.012981
v 1.393129 10.260927 0.012981
v 1.000000 10.260927 1.000000
v -1.000000 8.700279 1.000000
v -1.000000 10.260927 1.000000
v 0.000000 8.700279 1.390996
v 0.000000 10.260927 1.390996
v 0.000000 8.700279 -1.395261
v 0.000000 10.260927 -1.395261
v 1.000000 8.700279 -1.000000
v 1.000000 10.260927 -1.000000
v -1.138763 12.534093 0.011272
v -0.817414 12.534093 0.818076
v -0.219000 13.303822 0.221825
v -0.305095 13.303822 0.005668
v 0.000000 12.534093 1.137682
v 0.817414 12.534093 0.818076
v 0.219000 13.303822 0.221825
v 0.000000 13.303822 0.307453
v 0.817414 12.534093 -0.816753
v 0.000000 12.534093 -1.139845
v 0.000000 13.303822 -0.302736
v 0.219000 13.303822 -0.216174
v 0.000000 13.303822 0.005201
v -0.219000 13.303822 -0.216174
v 0.305095 13.303822 0.005668
v 1.138763 12.534093 0.011272
v -0.817414 12.534093 -0.816753
v 1.639860 10.471310 0.014640
v 1.177106 10.471310 1.176466
v -1.177106 10.471310 1.176466
v -1.639860 10.471310 0.014640
v 0.000000 10.471310 1.636709
v 0.000000 10.471310 -1.643010
v 1.177106 10.471310 -1.177747
v -1.177106 10.471310 -1.177747
v -1.177106 12.338317 -1.177746
v -1.639860 12.338317 0.014641
v 1.177106 12.338317 1.176467
v 1.639860 12.338317 0.014641
v -1.177106 12.338317 1.176467
v 0.000000 12.338317 1.636710
v 0.000000 12.338317 -1.643009
v 1.177106 12.338317 -1.177746
v 4.670483 -1.000000 -3.379151
v 5.022631 1.000000 -3.630226
v 3.778530 1.000000 -5.375150
v 2.818069 -1.000000 -5.314172
v 5.617811 1.000000 -6.240546
v 5.234568 -1.000000 -6.778066
v 6.651101 -1.000000 -4.791297
v 6.651101 1.000000 -4.791297
v 7.166042 0.724793 -2.925860
v 7.895201 -1.000000 -3.046373
v 6.380299 1.000000 -2.546880
v 6.266731 -1.000000 -1.885302
v 4.319114 1.956857 -5.265275
v 5.545477 1.956857 -5.693673
v 7.500566 -1.000000 -8.028897
v 8.744667 -1.000000 -6.283973
v 7.573433 0.513306 -7.297346
v 8.549397 1.000000 -6.557851
v 5.094965 1.956857 -4.177100
v 6.110517 1.956857 -4.901171
v -2.589630 -1.000000 -1.402256
v -2.589630 0.366260 -1.402256
v -2.094770 0.476476 -2.309652
v -2.094770 -1.000000 -2.309652
v 1.617138 -1.000000 -2.804512
v 1.617138 0.628022 -2.804512
v 2.524534 0.421368 -2.309652
v 2.524534 -1.000000 -2.309652
v 3.019394 -1.000000 1.402256
v 3.019394 0.448922 1.402256
v 2.524534 0.834677 2.309652
v 2.524534 -1.000000 2.309652
v -1.187374 -1.000000 2.804512
v -1.187374 0.448922 2.804512
v -2.094770 0.862230 2.309652
v -2.094770 -1.000000 2.309652
v 1.617138 -1.000000 1.402256
v 1.617138 -1.000000 2.804512
v -1.187374 1.000000 1.402256
v -2.589630 0.559138 1.402256
v 1.617138 1.000000 1.402256
v 0.214882 1.000000 1.402256
v 0.214882 0.448922 2.804512
v 1.617138 0.448922 2.804512
v -1.187374 -1.000000 1.402256
v 0.214882 -1.000000 1.402256
v 0.214882 -1.000000 2.804512
v -1.187374 -1.000000 -2.804512
v -1.187374 0.641799 -2.804512
v 0.214882 0.834677 -2.804512
v 0.214882 -1.000000 -2.804512
v -1.187374 -1.000000 -1.402256
v 0.214882 -1.000000 -1.402256
v 0.214882 -1.000000 -0.000000
v -1.187374 -1.000000 -0.000000
v 1.617138 0.896673 -1.402256
v 0.214882 1.000000 -1.402256
v 0.214882 1.000000 0.000000
v 1.617138 1.000000 0.000000
v -1.187374 0.903561 -1.402256
v -2.589630 0.559138 0.000000
v -1.187374 1.000000 0.000000
v 1.617138 -1.000000 -1.402256
v 3.019394 -1.000000 -1.402256
v 3.019394 -1.000000 -0.000000
v 1.617138 -1.000000 -0.000000
v 3.019394 0.242268 -1.402256
v 3.019394 0.448922 0.000000
v -2.589630 -1.000000 1.402256
v -2.589630 -1.000000 -0.000000
v -3.639813 -1.423641 6.518523
v -1.883178 -0.941425 7.089280
v -2.554155 -0.941425 8.012806
v -3.639816 -0.941425 8.365559
v -4.725477 -0.941425 8.012806
v -5.396454 -0.941425 7.089280
v -5.396454 -0.941425 5.947765
v -4.725477 -0.941425 5.024240
v -3.639816 -0.941425 4.671487
v -2.554155 -0.941425 5.024240
v -1.883178 -0.941425 5.947765
v -3.129317 -0.115394 8.089703
v -2.368706 0.029629 7.442035
v -3.339755 0.629764 7.442032
v -4.976344 -0.115395 7.489556
v -4.125344 0.029631 8.012796
v -4.425402 0.629764 7.089278
v -4.976344 -0.115395 5.547489
v -5.210993 0.029628 6.518523
v -4.425402 0.629764 5.947768
v -3.129317 -0.115394 4.947343
v -4.125344 0.029631 5.024250
v -3.339755 0.629764 5.595014
v -1.987779 -0.115402 6.518523
v -2.368706 0.029629 5.595011
v -2.668774 0.629759 6.518523
v -3.639816 0.905611 6.518523
vt 0.375000 0.123644
vt 0.625000 0.123644
vt 0.625000 0.250000
vt 0.375000 0.250000
vt 0.375000 0.375000
vt 0.625000 0.375000
vt 0.625000 0.500000
vt 0.375000 0.500000
vt 0.375000 0.626356
vt 0.625000 0.626356
vt 0.625000 0.750000
vt 0.375000 0.750000
vt 0.375000 0.875000
vt 0.625000 0.875000
vt 0.625000 1.000000
vt 0.375000 1.000000
vt 0.250000 0.626356
vt 0.250000 0.750000
vt 0.250000 0.500000
vt 0.375000 0.000000
vt 0.625000 0.000000
vt 0.125000 0.500000
vt 0.125000 0.626356
vt 0.125000 0.750000
vt 0.625000 0.500000
vt 0.625000 0.375000
vt 0.625000 0.375000
vt 0.625000 0.500000
vt 0.625000 1.000000
vt 0.625000 0.875000
vt 0.625000 0.875000
vt 0.625000 1.000000
vt 0.625000 0.626356
vt 0.625000 0.626356
vt 0.625000 0.250000
vt 0.625000 0.250000
vt 0.625000 0.750000
vt 0.625000 0.750000
vt 0.625000 0.123644
vt 0.625000 0.000000
vt 0.625000 0.000000
vt 0.625000 0.123644
vt 0.625000 0.250000
vt 0.625000 0.123644
vt 0.625000 0.123644
vt 0.625000 0.250000
vt 0.625000 0.750000
vt 0.625000 0.626356
vt 0.625000 0.626356
vt 0.625000 0.750000
vt 0.625000 0.000000
vt 0.625000 0.000000
vt 0.625000 0.875000
vt 0.625000 0.875000
vt 0.625000 0.375000
vt 0.625000 0.375000
vt 0.625000 0.500000
vt 0.625000 0.500000
vt 0.625000 1.000000
vt 0.625000 1.000000
vt 0.625000 0.123644
vt 0.625000 0.000000
vt 0.625000 0.000000
vt 0.625000 0.123644
vt 0.625000 0.875000
vt 0.625000 0.750000
vt 0.625000 0.750000
vt 0.625000 0.875000
vt 0.625000 0.500000
vt 0.625000 0.375000
vt 0.625000 0.375000
vt 0.625000 0.500000
vt 0.625000 1.000000
vt 0.625000 1.000000
vt 0.750000 0.626356
vt 0.875000 0.626356
vt 0.875000 0.750000
vt 0.750000 0.750000
vt 0.750000 0.500000
vt 0.875000 0.500000
vt 0.625000 0.626356
vt 0.625000 0.626356
vt 0.625000 0.250000
vt 0.625000 0.250000
vt 0.625000 0.626356
vt 0.625000 0.750000
vt 0.625000 0.000000
vt 0.625000 0.123644
vt 0.625000 0.875000
vt 0.625000 0.375000
vt 0.625000 0.500000
vt 0.625000 0.250000
vt 0.625000 1.000000
vt 0.625000 0.250000
vt 0.625000 0.123644
vt 0.625000 0.750000
vt 0.625000 0.626356
vt 0.625000 0.000000
vt 0.625000 0.875000
vt 0.625000 0.375000
vt 0.625000 0.500000
vt 0.625000 1.000000
vt 0.375000 0.125000
vt 0.625000 0.125000
vt 0.625000 0.250000
vt 0.375000 0.250000
vt 0.625000 0.500000
vt 0.375000 0.500000
vt 0.375000 0.625000
vt 0.625000 0.625000
vt 0.625000 0.750000
vt 0.375000 0.750000
vt 0.625000 1.000000
vt 0.375000 1.000000
vt 0.125000 0.625000
vt 0.125000 0.750000
vt 0.875000 0.625000
vt 0.875000 0.750000
vt 0.625000 0.250000
vt 0.625000 0.500000
vt 0.125000 0.500000
vt 0.375000 0.500000
vt 0.375000 0.625000
vt 0.375000 0.000000
vt 0.625000 0.000000
vt 0.625000 0.500000
vt 0.625000 0.625000
vt 0.875000 0.500000
vt 0.875000 0.625000
vt 0.625000 0.625000
vt 0.625000 0.125000
vt 0.375000 0.187500
vt 0.625000 0.187500
vt 0.625000 0.250000
vt 0.375000 0.250000
vt 0.375000 0.437500
vt 0.625000 0.437500
vt 0.625000 0.500000
vt 0.375000 0.500000
vt 0.375000 0.687500
vt 0.625000 0.687500
vt 0.625000 0.750000
vt 0.375000 0.750000
vt 0.375000 0.937500
vt 0.625000 0.937500
vt 0.625000 1.000000
vt 0.375000 1.000000
vt 0.312500 0.687500
vt 0.312500 0.750000
vt 0.812500 0.687500
vt 0.875000 0.687500
vt 0.875000 0.750000
vt 0.812500 0.750000
vt 0.687500 0.687500
vt 0.750000 0.687500
vt 0.750000 0.750000
vt 0.687500 0.750000
vt 0.187500 0.687500
vt 0.250000 0.687500
vt 0.250000 0.750000
vt 0.187500 0.750000
vt 0.375000 0.812500
vt 0.625000 0.812500
vt 0.625000 0.875000
vt 0.375000 0.875000
vt 0.375000 0.312500
vt 0.625000 0.312500
vt 0.625000 0.375000
vt 0.375000 0.375000
vt 0.187500 0.562500
vt 0.250000 0.562500
vt 0.250000 0.625000
vt 0.187500 0.625000
vt 0.687500 0.562500
vt 0.750000 0.562500
vt 0.750000 0.625000
vt 0.687500 0.625000
vt 0.812500 0.562500
vt 0.875000 0.562500
vt 0.875000 0.625000
vt 0.812500 0.625000
vt 0.312500 0.562500
vt 0.375000 0.562500
vt 0.375000 0.625000
vt 0.312500 0.625000
vt 0.625000 0.562500
vt 0.625000 0.625000
vt 0.375000 0.062500
vt 0.625000 0.062500
vt 0.625000 0.125000
vt 0.375000 0.125000
vt 0.125000 0.562500
vt 0.125000 0.625000
vt 0.125000 0.687500
vt 0.125000 0.750000
vt 0.125000 0.500000
vt 0.187500 0.500000
vt 0.750000 0.500000
vt 0.812500 0.500000
vt 0.687500 0.500000
vt 0.250000 0.500000
vt 0.312500 0.500000
vt 0.875000 0.500000
vt 0.375000 0.000000
vt 0.625000 0.000000
vt 0.454545 0.078731
vt 0.681818 0.236191
vt 0.772726 0.236191
vt 0.863635 0.236191
vt 0.954545 0.236191
vt 0.136363 0.236191
vt 0.227273 0.236191
vt 0.318182 0.236191
vt 0.409090 0.236191
vt 0.500000 0.236191
vt 0.590909 0.236191
vt 0.818181 0.314921
vt 0.727272 0.314921
vt 0.772726 0.393651
vt 1.000000 0.314921
vt 0.909091 0.314921
vt 0.954545 0.393651
vt 0.272727 0.314921
vt 0.181818 0.314921
vt 0.227273 0.393651
vt 0.454545 0.314921
vt 0.363636 0.314921
vt 0.409090 0.393651
vt 0.636363 0.314921
vt 0.545454 0.314921
vt 0.590909 0.393651
vt 0.500000 0.393651
vt 0.545454 0.472382
vt 0.318182 0.393651
vt 0.363636 0.472382
vt 0.136363 0.393651
vt 0.181818 0.472382
vt 0.090909 0.314921
vt 0.863635 0.393651
vt 0.909090 0.472382
vt 0.681818 0.393651
vt 0.727272 0.472382
vt 0.045454 0.236191
vn -0.7739 -0.6333 0.0034
vn -1.0000 -0.0000 0.0044
vn -0.7093 0.0000 -0.7049
vn -0.5525 -0.6271 -0.5491
vn 0.0000 -0.6330 -0.7742
vn 0.0000 0.0000 -1.0000
vn 0.7093 0.0000 -0.7049
vn 0.5525 -0.6271 -0.5491
vn 0.7739 -0.6333 0.0034
vn 1.0000 -0.0000 0.0044
vn 0.7049 -0.0000 0.7093
vn 0.5488 -0.6275 0.5523
vn 0.0000 -0.6336 0.7737
vn 0.0000 -0.0000 1.0000
vn -0.7049 -0.0000 0.7093
vn -0.5488 -0.6275 0.5523
vn 0.0000 -1.0000 -0.0000
vn -0.8872 -0.4614 0.0037
vn -0.6262 -0.4706 -0.6216
vn 0.8872 -0.4614 0.0037
vn 0.6220 -0.4693 0.6267
vn -0.6220 -0.4693 0.6267
vn -0.0000 -0.4601 0.8879
vn -0.0000 -0.4627 -0.8865
vn 0.6262 -0.4706 -0.6216
vn -0.4973 0.8676 0.0021
vn -0.3448 0.8721 0.3473
vn -0.3076 0.8995 0.3104
vn -0.4344 0.9007 0.0017
vn 0.0000 0.8666 0.4989
vn 0.3448 0.8721 0.3473
vn 0.3076 0.8995 0.3104
vn 0.0000 0.9003 0.4352
vn 0.3462 0.8729 -0.3437
vn 0.0000 0.8685 -0.4956
vn 0.0000 0.9011 -0.4337
vn 0.3100 0.8997 -0.3073
vn 0.0000 1.0000 0.0000
vn -0.3100 0.8997 -0.3073
vn 0.4344 0.9007 0.0017
vn 0.4973 0.8676 0.0021
vn -0.3462 0.8729 -0.3437
vn 0.9226 -0.3858 0.0042
vn 0.6505 -0.3857 0.6543
vn -0.6505 -0.3857 0.6543
vn -0.9226 -0.3858 0.0042
vn 0.0000 -0.3851 0.9229
vn 0.0000 -0.3865 -0.9223
vn 0.6541 -0.3862 -0.6503
vn -0.6541 -0.3862 -0.6503
vn -0.6111 0.5074 -0.6075
vn -0.8602 0.5099 0.0039
vn 0.6076 0.5072 0.6112
vn 0.8602 0.5099 0.0039
vn -0.6076 0.5072 0.6112
vn 0.0000 0.5096 0.8604
vn -0.0000 0.5101 -0.8601
vn 0.6111 0.5074 -0.6075
vn 0.9323 0.0000 -0.3618
vn -0.3676 0.0000 -0.9300
vn -0.9323 0.0000 -0.3618
vn 0.9290 0.0000 0.3700
vn -0.3641 -0.0000 0.9313
vn 0.3676 0.0000 -0.9300
vn 0.3641 -0.0000 0.9313
vn -0.9290 0.0000 0.3700
vn -0.7326 0.2885 0.6165
vn -0.4640 0.2569 -0.8478
vn 0.8886 0.1875 -0.4186
vn 0.5428 0.2079 0.8137
vn 0.1226 0.9924 0.0148
vn -0.3596 0.3804 -0.8521
vn -0.6380 0.2411 0.7313
vn 0.7297 0.1133 -0.6743
vn 0.6302 0.0836 0.7719
vn -0.4162 0.3562 -0.8366
vn -0.0215 0.9799 -0.1982
vn 0.5350 0.3884 0.7503
vn 0.7577 0.3660 -0.5402
vn -0.7577 0.3660 0.5402
vn -0.8779 0.0000 -0.4788
vn 0.4788 0.0000 -0.8779
vn 0.8779 0.0000 0.4788
vn -0.4788 0.0000 0.8779
vn -0.0364 0.9928 0.1144
vn 0.0000 0.9307 0.3658
vn 0.0368 0.9986 -0.0368
vn -0.3278 0.9398 -0.0969
vn 1.0000 0.0000 0.0000
vn -1.0000 -0.0000 0.0000
vn 0.3929 0.9140 -0.1010
vn 0.4788 0.0000 0.8779
vn 0.0904 0.9918 0.0904
vn -0.0343 0.9988 -0.0343
vn -0.4788 0.0000 -0.8779
vn -0.1015 0.9835 -0.1498
vn 0.3685 0.9225 -0.1147
vn 0.8779 0.0000 -0.4788
vn -0.3138 0.9407 -0.1290
vn 0.1086 0.9824 -0.1520
vn 0.3658 0.9307 0.0000
vn -0.8779 0.0000 0.4788
vn -0.2999 0.9540 0.0000
vn 0.2142 -0.9643 0.1556
vn -0.0818 -0.9643 0.2518
vn -0.2647 -0.9643 0.0000
vn -0.0818 -0.9643 -0.2518
vn 0.2142 -0.9643 -0.1556
vn 0.4089 0.6617 0.6284
vn -0.4713 0.6617 0.5831
vn -0.7002 0.6617 -0.2680
vn 0.0385 0.6617 -0.7488
vn 0.7240 0.6617 -0.1947
vn 0.2680 0.9435 -0.1947
vn 0.4911 0.7947 -0.3568
vn 0.4089 0.6617 -0.6284
vn -0.1024 0.9435 -0.3151
vn -0.1876 0.7947 -0.5773
vn -0.4713 0.6617 -0.5831
vn -0.3313 0.9435 0.0000
vn -0.6071 0.7947 0.0000
vn -0.7002 0.6617 0.2680
vn -0.1024 0.9435 0.3151
vn -0.1876 0.7947 0.5773
vn 0.0385 0.6617 0.7488
vn 0.2680 0.9435 0.1947
vn 0.4911 0.7947 0.3568
vn 0.7240 0.6617 0.1947
vn 0.8897 0.3304 -0.3151
vn 0.7947 0.1876 -0.5773
vn 0.5746 0.3304 -0.7488
vn -0.0247 0.3304 -0.9435
vn -0.3035 0.1876 -0.9342
vn -0.5346 0.3304 -0.7779
vn -0.9050 0.3304 -0.2680
vn -0.9822 0.1876 0.0000
vn -0.9050 0.3304 0.2680
vn -0.5346 0.3304 0.7779
vn -0.3035 0.1876 0.9342
vn -0.0247 0.3304 0.9435
vn 0.5746 0.3304 0.7488
vn 0.7947 0.1876 0.5773
vn 0.8897 0.3304 0.3151
vn 0.3066 0.1256 -0.9435
vn 0.0818 -0.9643 -0.2518
vn -0.8026 0.1256 -0.5831
vn -0.2142 -0.9643 -0.1556
vn -0.8026 0.1256 0.5831
vn -0.2142 -0.9643 0.1556
vn 0.3066 0.1256 0.9435
vn 0.0818 -0.9643 0.2518
vn 0.9921 0.1256 0.0000
vn 0.2647 -0.9643 0.0000
usemtl Material.011
s 1
f 1/1/1 2/2/2 3/3/3 4/4/4
f 5/5/5 6/6/6 7/7/7 8/8/8
f 9/9/9 10/10/10 11/11/11 12/12/12
f 13/13/13 14/14/14 15/15/15 16/16/16
f 17/17/17 9/9/9 12/12/12 13/18/13
f 5/19/5 8/8/8 9/9/9 17/17/17
f 8/8/8 7/7/7 10/10/10 9/9/9
f 16/20/16 15/21/15 2/2/2 1/1/1
f 4/22/4 5/19/5 17/17/17 1/23/1
f 1/23/1 17/17/17 13/18/13 16/24/16
f 12/12/12 11/11/11 14/14/14 13/13/13
f 4/4/4 3/3/3 6/6/6 5/5/5
f 18/25/7 19/26/6 20/27/6 21/28/7
f 22/29/15 23/30/14 24/31/14 25/32/15
f 26/33/10 18/25/7 21/28/7 27/34/10
f 19/26/6 28/35/3 29/36/3 20/27/6
f 23/30/14 30/37/11 31/38/11 24/31/14
f 32/39/2 22/40/15 25/41/15 33/42/2
f 30/37/11 26/33/10 27/34/10 31/38/11
f 28/35/3 32/39/2 33/42/2 29/36/3
f 34/43/3 35/44/2 36/45/18 37/46/19
f 38/47/11 39/48/10 40/49/20 41/50/21
f 35/44/2 42/51/15 43/52/22 36/45/18
f 44/53/14 38/47/11 41/50/21 45/54/23
f 46/55/6 34/43/3 37/46/19 47/56/24
f 39/48/10 48/57/7 49/58/25 40/49/20
f 42/59/15 44/53/14 45/54/23 43/60/22
f 48/57/7 46/55/6 47/56/24 49/58/25
f 50/61/26 51/62/27 52/63/28 53/64/29
f 54/65/30 55/66/31 56/67/32 57/68/33
f 58/69/34 59/70/35 60/71/36 61/72/37
f 51/73/27 54/65/30 57/68/33 52/74/28
f 62/75/38 53/76/29 52/77/28 57/78/33
f 60/79/36 63/80/39 53/76/29 62/75/38
f 61/72/37 60/79/36 62/75/38 64/81/40
f 64/81/40 62/75/38 57/78/33 56/67/32
f 55/66/31 65/82/41 64/81/40 56/67/32
f 66/83/42 50/61/26 53/64/29 63/84/39
f 59/70/35 66/83/42 63/84/39 60/71/36
f 65/82/41 58/69/34 61/72/37 64/81/40
usemtl Material.012
f 15/15/15 14/14/14 23/30/14 22/29/15
f 3/3/3 2/2/2 32/39/2 28/35/3
f 2/2/2 15/21/15 22/40/15 32/39/2
f 10/10/10 7/7/7 18/25/7 26/33/10
f 7/7/7 6/6/6 19/26/6 18/25/7
f 14/14/14 11/11/11 30/37/11 23/30/14
f 6/6/6 3/3/3 28/35/3 19/26/6
f 11/11/11 10/10/10 26/33/10 30/37/11
f 27/34/10 21/28/7 48/57/7 39/48/10
f 20/27/6 29/36/3 34/43/3 46/55/6
f 29/36/3 33/42/2 35/44/2 34/43/3
f 31/38/11 27/34/10 39/48/10 38/47/11
f 25/32/15 24/31/14 44/53/14 42/59/15
f 21/28/7 20/27/6 46/55/6 48/57/7
f 24/31/14 31/38/11 38/47/11 44/53/14
f 33/42/2 25/41/15 42/51/15 35/44/2
f 41/50/21 40/49/20 67/85/43 68/86/44
f 36/45/18 43/52/22 69/87/45 70/88/46
f 45/54/23 41/50/21 68/86/44 71/89/47
f 49/58/25 47/56/24 72/90/48 73/91/49
f 37/46/19 36/45/18 70/88/46 74/92/50
f 47/56/24 37/46/19 74/92/50 72/90/48
f 40/49/20 49/58/25 73/91/49 67/85/43
f 43/60/22 45/54/23 71/89/47 69/93/45
f 75/94/51 76/95/52 50/61/26 66/83/42
f 77/96/53 78/97/54 65/82/41 55/66/31
f 76/95/52 79/98/55 51/62/27 50/61/26
f 80/99/56 77/96/53 55/66/31 54/65/30
f 81/100/57 75/94/51 66/83/42 59/70/35
f 78/97/54 82/101/58 58/69/34 65/82/41
f 79/102/55 80/99/56 54/65/30 51/73/27
f 82/101/58 81/100/57 59/70/35 58/69/34
usemtl Material.013
s off
f 67/85/59 73/91/59 82/101/59 78/97/59
f 72/90/60 74/92/60 75/94/60 81/100/60
f 74/92/61 70/88/61 76/95/61 75/94/61
f 68/86/62 67/85/62 78/97/62 77/96/62
f 69/93/63 71/89/63 80/99/63 79/102/63
f 73/91/64 72/90/64 81/100/64 82/101/64
f 71/89/65 68/86/65 77/96/65 80/99/65
f 70/88/66 69/87/66 79/98/66 76/95/66
usemtl Material.014
f 83/103/67 84/104/67 85/105/67 86/106/67
f 86/106/68 85/105/68 87/107/68 88/108/68
f 89/109/69 90/110/69 91/111/69 92/112/69
f 92/112/70 91/111/70 93/113/70 94/114/70
f 83/115/17 89/109/17 92/112/17 94/116/17
f 90/110/71 84/117/71 93/118/71 91/111/71
f 87/107/72 85/105/72 95/119/72 96/120/72
f 86/121/17 88/108/17 89/109/17 83/115/17
f 89/109/17 88/108/17 97/122/17 98/123/17
f 94/124/73 93/125/73 84/104/73 83/103/73
f 97/122/74 99/126/74 100/127/74 98/123/74
f 90/110/75 89/109/75 98/123/75 100/127/75
f 88/108/76 87/107/76 99/126/76 97/122/76
f 87/107/77 90/110/77 100/127/77 99/126/77
f 96/120/38 95/128/38 101/129/38 102/130/38
f 84/117/78 90/110/78 102/130/78 101/129/78
f 90/110/79 87/107/79 96/120/79 102/130/79
f 85/105/80 84/104/80 101/131/80 95/119/80
f 103/132/81 104/133/81 105/134/81 106/135/81
f 107/136/82 108/137/82 109/138/82 110/139/82
f 111/140/83 112/141/83 113/142/83 114/143/83
f 115/144/84 116/145/84 117/146/84 118/147/84
f 119/148/17 111/140/17 114/143/17 120/149/17
f 121/150/85 122/151/85 117/152/85 116/153/85
f 123/154/86 124/155/86 125/156/86 126/157/86
f 127/158/17 128/159/17 129/160/17 115/161/17
f 120/162/14 126/163/14 125/164/14 129/165/14
f 130/166/6 131/167/6 132/168/6 133/169/6
f 134/170/17 135/171/17 136/172/17 137/173/17
f 138/174/87 139/175/87 140/176/87 141/177/87
f 142/178/88 104/179/88 143/180/88 144/181/88
f 145/182/17 146/183/17 147/184/17 148/185/17
f 146/183/89 149/186/89 150/187/89 147/184/89
f 151/188/90 122/189/90 143/190/90 152/191/90
f 135/171/17 145/182/17 148/185/17 136/172/17
f 149/186/91 138/174/91 141/177/91 150/187/91
f 114/143/92 113/142/92 126/163/92 120/162/92
f 112/141/93 123/154/93 126/157/93 113/142/93
f 128/159/17 119/148/17 120/149/17 129/160/17
f 133/169/6 132/168/6 108/137/6 107/136/6
f 139/175/94 142/178/94 144/181/94 140/176/94
f 103/192/17 134/170/17 137/173/17 152/193/17
f 106/135/95 105/134/95 131/167/95 130/166/95
f 151/194/17 127/158/17 115/161/17 118/195/17
f 124/155/86 121/150/86 116/153/86 125/156/86
f 129/165/14 125/164/14 116/145/14 115/144/14
f 106/196/17 130/197/17 134/170/17 103/192/17
f 132/198/96 131/199/96 142/178/96 139/175/96
f 109/138/97 108/200/97 138/174/97 149/186/97
f 133/201/17 107/202/17 145/182/17 135/171/17
f 110/139/98 109/138/98 149/186/98 146/183/98
f 107/202/17 110/139/17 146/183/17 145/182/17
f 131/199/99 105/203/99 104/179/99 142/178/99
f 108/200/100 132/198/100 139/175/100 138/174/100
f 130/197/17 133/201/17 135/171/17 134/170/17
f 152/191/90 143/190/90 104/133/90 103/132/90
f 140/176/38 144/181/38 121/150/38 124/155/38
f 152/193/17 137/173/17 127/158/17 151/194/17
f 136/172/17 148/185/17 119/148/17 128/159/17
f 150/187/101 141/177/101 123/154/101 112/141/101
f 118/204/102 117/205/102 122/189/102 151/188/102
f 137/173/17 136/172/17 128/159/17 127/158/17
f 141/177/38 140/176/38 124/155/38 123/154/38
f 144/181/103 143/180/103 122/151/103 121/150/103
f 148/185/17 147/184/17 111/140/17 119/148/17
f 147/184/89 150/187/89 112/141/89 111/140/89
f 153/206/104 154/207/104 155/208/104
f 153/206/105 156/209/105 157/210/105
f 153/206/106 158/211/106 159/212/106
f 153/206/107 160/213/107 161/214/107
f 153/206/108 162/215/108 163/216/108
f 164/217/109 165/218/109 166/219/109
f 167/220/110 168/221/110 169/222/110
f 170/223/111 171/224/111 172/225/111
f 173/226/112 174/227/112 175/228/112
f 176/229/113 177/230/113 178/231/113
f 178/231/114 175/232/114 179/233/114
f 178/231/115 177/230/115 175/232/115
f 177/230/116 173/226/116 175/232/116
f 175/228/117 172/234/117 179/235/117
f 175/228/118 174/227/118 172/234/118
f 174/227/119 170/223/119 172/234/119
f 172/225/120 169/236/120 179/237/120
f 172/225/121 171/224/121 169/236/121
f 171/224/122 167/238/122 169/236/122
f 169/222/123 166/239/123 179/240/123
f 169/222/124 168/221/124 166/239/124
f 168/221/125 164/217/125 166/239/125
f 166/219/126 178/241/126 179/242/126
f 166/219/127 165/218/127 178/241/127
f 165/218/128 176/229/128 178/241/128
f 163/216/129 177/230/129 176/229/129
f 163/216/130 162/215/130 177/230/130
f 162/215/131 173/226/131 177/230/131
f 161/214/132 174/227/132 173/226/132
f 161/214/133 160/213/133 174/227/133
f 160/213/134 170/223/134 174/227/134
f 159/212/135 171/224/135 170/223/135
f 159/212/136 158/211/136 171/224/136
f 158/211/137 167/238/137 171/224/137
f 157/210/138 168/221/138 167/220/138
f 157/210/139 156/209/139 168/221/139
f 156/209/140 164/217/140 168/221/140
f 155/208/141 165/218/141 164/217/141
f 155/208/142 154/207/142 165/218/142
f 154/207/143 176/229/143 165/218/143
f 162/215/144 161/214/144 173/226/144
f 162/215/145 153/206/145 161/214/145
f 160/213/146 159/212/146 170/223/146
f 160/213/147 153/206/147 159/212/147
f 158/211/148 157/243/148 167/238/148
f 158/211/149 153/206/149 157/243/149
f 156/209/150 155/208/150 164/217/150
f 156/209/151 153/206/151 155/208/151
f 154/207/152 163/216/152 176/229/152
f 154/207/153 153/206/153 163/216/153
